<svg xmlns="http://www.w3.org/2000/svg" viewBox="0 0 24 24" fill="#000000" id="Instagram-Logo--Streamline-Phosphor" height="24" width="24">
  <desc>
    Instagram Logo Streamline Icon: https://streamlinehq.com
  </desc>
  <path d="M12 6.5723062500000005c-4.178240625 0 -6.7896374999999995 4.523081250000001 -4.700521875 8.141540625000001 2.089125 3.6184593749999996 7.311918749999999 3.6184593749999996 9.40104375 0 0.476371875 -0.8251124999999999 0.727171875 -1.761084375 0.727171875 -2.713846875C17.424571874999998 9.00365625 14.996343750000001 6.575428125 12 6.5723062500000005Zm0 9.046153125c-2.785490625 0.00013125 -4.5264 -3.0151781250000003 -3.1337625 -5.427553125 1.3926375 -2.412365625 4.874503125 -2.412525 6.26735625 -0.000271875 0.31764375 0.55010625 0.48486562499999997 1.174134375 0.48486562499999997 1.809365625 0 1.9984875 -1.6199718749999998 3.618553125 -3.6184593749999996 3.6184593749999996ZM17.42769375 0.24H6.5723062500000005C3.0766218750000003 0.243740625 0.243740625 3.0766218750000003 0.24 6.5723062500000005v10.8553875c0.003740625 3.495684375 2.836621875 6.3285656249999995 6.33230625 6.33230625h10.8553875c3.495684375 -0.003740625 6.3285656249999995 -2.836621875 6.33230625 -6.33230625V6.5723062500000005c-0.003740625 -3.495684375 -2.836621875 -6.3285656249999995 -6.33230625 -6.33230625Zm4.523071874999999 17.18769375c0 2.498025 -2.025046875 4.523071874999999 -4.523071874999999 4.523071874999999H6.5723062500000005c-2.498025 0 -4.523071874999999 -2.025046875 -4.523071874999999 -4.523071874999999V6.5723062500000005c0 -2.498025 2.025046875 -4.523071874999999 4.523071874999999 -4.523071874999999h10.8553875c2.498025 0 4.523071874999999 2.025046875 4.523071874999999 4.523071874999999ZM19.23691875 6.12c0 1.0445625 -1.130765625 1.6974093749999999 -2.035378125 1.175128125 -0.904621875 -0.52228125 -0.904621875 -1.827975 0 -2.35025625 0.206296875 -0.11910937499999999 0.44025 -0.181809375 0.6784593750000001 -0.18180000000000002 0.74938125 0.0000375 1.3569187500000002 0.607546875 1.3569187500000002 1.356928125Z" stroke-width="0.0938"></path>
</svg>